<mxfile host="app.diagrams.net" agent="Mozilla/5.0 (Windows NT 10.0; Win64; x64) AppleWebKit/537.36 (KHTML, like Gecko) Chrome/132.0.0.0 Safari/537.36 Edg/132.0.0.0" version="26.0.9">
  <diagram name="Page-1" id="_jOtIpW2EGHnq6p1fihX">
    <mxGraphModel dx="786" dy="502" grid="1" gridSize="10" guides="1" tooltips="1" connect="1" arrows="1" fold="1" page="1" pageScale="1" pageWidth="827" pageHeight="1169" math="0" shadow="0">
      <root>
        <mxCell id="0" />
        <mxCell id="1" parent="0" />
        <mxCell id="e2yFHtlMbtTepohKIZFu-58" value="" style="group" parent="1" vertex="1" connectable="0">
          <mxGeometry x="30" y="230" width="80" height="90" as="geometry" />
        </mxCell>
        <mxCell id="e2yFHtlMbtTepohKIZFu-21" value="" style="group" parent="e2yFHtlMbtTepohKIZFu-58" vertex="1" connectable="0">
          <mxGeometry width="10" height="90" as="geometry" />
        </mxCell>
        <mxCell id="e2yFHtlMbtTepohKIZFu-1" value="" style="rounded=0;whiteSpace=wrap;html=1;fillColor=#d5e8d4;strokeColor=#82b366;" parent="e2yFHtlMbtTepohKIZFu-21" vertex="1">
          <mxGeometry width="10" height="10" as="geometry" />
        </mxCell>
        <mxCell id="e2yFHtlMbtTepohKIZFu-3" value="" style="rounded=0;whiteSpace=wrap;html=1;fillColor=#d5e8d4;strokeColor=#82b366;" parent="e2yFHtlMbtTepohKIZFu-21" vertex="1">
          <mxGeometry y="10" width="10" height="10" as="geometry" />
        </mxCell>
        <mxCell id="e2yFHtlMbtTepohKIZFu-8" value="" style="rounded=0;whiteSpace=wrap;html=1;fillColor=#d5e8d4;strokeColor=#82b366;" parent="e2yFHtlMbtTepohKIZFu-21" vertex="1">
          <mxGeometry y="20" width="10" height="10" as="geometry" />
        </mxCell>
        <mxCell id="e2yFHtlMbtTepohKIZFu-9" value="" style="rounded=0;whiteSpace=wrap;html=1;fillColor=#d5e8d4;strokeColor=#82b366;" parent="e2yFHtlMbtTepohKIZFu-21" vertex="1">
          <mxGeometry y="30" width="10" height="10" as="geometry" />
        </mxCell>
        <mxCell id="e2yFHtlMbtTepohKIZFu-16" value="" style="rounded=0;whiteSpace=wrap;html=1;fillColor=#d5e8d4;strokeColor=#82b366;" parent="e2yFHtlMbtTepohKIZFu-21" vertex="1">
          <mxGeometry y="40" width="10" height="10" as="geometry" />
        </mxCell>
        <mxCell id="e2yFHtlMbtTepohKIZFu-17" value="" style="rounded=0;whiteSpace=wrap;html=1;fillColor=#d5e8d4;strokeColor=#82b366;" parent="e2yFHtlMbtTepohKIZFu-21" vertex="1">
          <mxGeometry y="50" width="10" height="10" as="geometry" />
        </mxCell>
        <mxCell id="e2yFHtlMbtTepohKIZFu-18" value="" style="endArrow=none;dashed=1;html=1;dashPattern=1 3;strokeWidth=2;rounded=0;" parent="e2yFHtlMbtTepohKIZFu-21" edge="1">
          <mxGeometry width="50" height="50" relative="1" as="geometry">
            <mxPoint x="4.5" y="90" as="sourcePoint" />
            <mxPoint x="4.5" y="70" as="targetPoint" />
          </mxGeometry>
        </mxCell>
        <mxCell id="e2yFHtlMbtTepohKIZFu-30" value="" style="group" parent="e2yFHtlMbtTepohKIZFu-58" vertex="1" connectable="0">
          <mxGeometry x="10" width="10" height="90" as="geometry" />
        </mxCell>
        <mxCell id="e2yFHtlMbtTepohKIZFu-31" value="" style="rounded=0;whiteSpace=wrap;html=1;fillColor=#d5e8d4;strokeColor=#82b366;" parent="e2yFHtlMbtTepohKIZFu-30" vertex="1">
          <mxGeometry width="10" height="10" as="geometry" />
        </mxCell>
        <mxCell id="e2yFHtlMbtTepohKIZFu-32" value="" style="rounded=0;whiteSpace=wrap;html=1;fillColor=#d5e8d4;strokeColor=#82b366;" parent="e2yFHtlMbtTepohKIZFu-30" vertex="1">
          <mxGeometry y="10" width="10" height="10" as="geometry" />
        </mxCell>
        <mxCell id="e2yFHtlMbtTepohKIZFu-33" value="" style="rounded=0;whiteSpace=wrap;html=1;fillColor=#d5e8d4;strokeColor=#82b366;" parent="e2yFHtlMbtTepohKIZFu-30" vertex="1">
          <mxGeometry y="20" width="10" height="10" as="geometry" />
        </mxCell>
        <mxCell id="e2yFHtlMbtTepohKIZFu-34" value="" style="rounded=0;whiteSpace=wrap;html=1;fillColor=#d5e8d4;strokeColor=#82b366;" parent="e2yFHtlMbtTepohKIZFu-30" vertex="1">
          <mxGeometry y="30" width="10" height="10" as="geometry" />
        </mxCell>
        <mxCell id="e2yFHtlMbtTepohKIZFu-35" value="" style="rounded=0;whiteSpace=wrap;html=1;fillColor=#d5e8d4;strokeColor=#82b366;" parent="e2yFHtlMbtTepohKIZFu-30" vertex="1">
          <mxGeometry y="40" width="10" height="10" as="geometry" />
        </mxCell>
        <mxCell id="e2yFHtlMbtTepohKIZFu-36" value="" style="rounded=0;whiteSpace=wrap;html=1;fillColor=#d5e8d4;strokeColor=#82b366;" parent="e2yFHtlMbtTepohKIZFu-30" vertex="1">
          <mxGeometry y="50" width="10" height="10" as="geometry" />
        </mxCell>
        <mxCell id="e2yFHtlMbtTepohKIZFu-37" value="" style="endArrow=none;dashed=1;html=1;dashPattern=1 3;strokeWidth=2;rounded=0;" parent="e2yFHtlMbtTepohKIZFu-30" edge="1">
          <mxGeometry width="50" height="50" relative="1" as="geometry">
            <mxPoint x="4.5" y="90" as="sourcePoint" />
            <mxPoint x="4.5" y="70" as="targetPoint" />
          </mxGeometry>
        </mxCell>
        <mxCell id="e2yFHtlMbtTepohKIZFu-41" value="" style="group" parent="e2yFHtlMbtTepohKIZFu-58" vertex="1" connectable="0">
          <mxGeometry x="20" width="10" height="90" as="geometry" />
        </mxCell>
        <mxCell id="e2yFHtlMbtTepohKIZFu-42" value="" style="rounded=0;whiteSpace=wrap;html=1;fillColor=#d5e8d4;strokeColor=#82b366;" parent="e2yFHtlMbtTepohKIZFu-41" vertex="1">
          <mxGeometry width="10" height="10" as="geometry" />
        </mxCell>
        <mxCell id="e2yFHtlMbtTepohKIZFu-43" value="" style="rounded=0;whiteSpace=wrap;html=1;fillColor=#d5e8d4;strokeColor=#82b366;" parent="e2yFHtlMbtTepohKIZFu-41" vertex="1">
          <mxGeometry y="10" width="10" height="10" as="geometry" />
        </mxCell>
        <mxCell id="e2yFHtlMbtTepohKIZFu-44" value="" style="rounded=0;whiteSpace=wrap;html=1;fillColor=#d5e8d4;strokeColor=#82b366;" parent="e2yFHtlMbtTepohKIZFu-41" vertex="1">
          <mxGeometry y="20" width="10" height="10" as="geometry" />
        </mxCell>
        <mxCell id="e2yFHtlMbtTepohKIZFu-45" value="" style="rounded=0;whiteSpace=wrap;html=1;fillColor=#d5e8d4;strokeColor=#82b366;" parent="e2yFHtlMbtTepohKIZFu-41" vertex="1">
          <mxGeometry y="30" width="10" height="10" as="geometry" />
        </mxCell>
        <mxCell id="e2yFHtlMbtTepohKIZFu-46" value="" style="rounded=0;whiteSpace=wrap;html=1;fillColor=#d5e8d4;strokeColor=#82b366;" parent="e2yFHtlMbtTepohKIZFu-41" vertex="1">
          <mxGeometry y="40" width="10" height="10" as="geometry" />
        </mxCell>
        <mxCell id="e2yFHtlMbtTepohKIZFu-47" value="" style="rounded=0;whiteSpace=wrap;html=1;fillColor=#d5e8d4;strokeColor=#82b366;" parent="e2yFHtlMbtTepohKIZFu-41" vertex="1">
          <mxGeometry y="50" width="10" height="10" as="geometry" />
        </mxCell>
        <mxCell id="e2yFHtlMbtTepohKIZFu-48" value="" style="endArrow=none;dashed=1;html=1;dashPattern=1 3;strokeWidth=2;rounded=0;" parent="e2yFHtlMbtTepohKIZFu-41" edge="1">
          <mxGeometry width="50" height="50" relative="1" as="geometry">
            <mxPoint x="4.5" y="90" as="sourcePoint" />
            <mxPoint x="4.5" y="70" as="targetPoint" />
          </mxGeometry>
        </mxCell>
        <mxCell id="e2yFHtlMbtTepohKIZFu-49" value="" style="group" parent="e2yFHtlMbtTepohKIZFu-58" vertex="1" connectable="0">
          <mxGeometry x="70" width="10" height="90" as="geometry" />
        </mxCell>
        <mxCell id="e2yFHtlMbtTepohKIZFu-50" value="" style="rounded=0;whiteSpace=wrap;html=1;fillColor=#d5e8d4;strokeColor=#82b366;" parent="e2yFHtlMbtTepohKIZFu-49" vertex="1">
          <mxGeometry width="10" height="10" as="geometry" />
        </mxCell>
        <mxCell id="e2yFHtlMbtTepohKIZFu-51" value="" style="rounded=0;whiteSpace=wrap;html=1;fillColor=#d5e8d4;strokeColor=#82b366;" parent="e2yFHtlMbtTepohKIZFu-49" vertex="1">
          <mxGeometry y="10" width="10" height="10" as="geometry" />
        </mxCell>
        <mxCell id="e2yFHtlMbtTepohKIZFu-52" value="" style="rounded=0;whiteSpace=wrap;html=1;fillColor=#d5e8d4;strokeColor=#82b366;" parent="e2yFHtlMbtTepohKIZFu-49" vertex="1">
          <mxGeometry y="20" width="10" height="10" as="geometry" />
        </mxCell>
        <mxCell id="e2yFHtlMbtTepohKIZFu-53" value="" style="rounded=0;whiteSpace=wrap;html=1;fillColor=#d5e8d4;strokeColor=#82b366;" parent="e2yFHtlMbtTepohKIZFu-49" vertex="1">
          <mxGeometry y="30" width="10" height="10" as="geometry" />
        </mxCell>
        <mxCell id="e2yFHtlMbtTepohKIZFu-54" value="" style="rounded=0;whiteSpace=wrap;html=1;fillColor=#d5e8d4;strokeColor=#82b366;" parent="e2yFHtlMbtTepohKIZFu-49" vertex="1">
          <mxGeometry y="40" width="10" height="10" as="geometry" />
        </mxCell>
        <mxCell id="e2yFHtlMbtTepohKIZFu-55" value="" style="rounded=0;whiteSpace=wrap;html=1;fillColor=#d5e8d4;strokeColor=#82b366;" parent="e2yFHtlMbtTepohKIZFu-49" vertex="1">
          <mxGeometry y="50" width="10" height="10" as="geometry" />
        </mxCell>
        <mxCell id="e2yFHtlMbtTepohKIZFu-56" value="" style="endArrow=none;dashed=1;html=1;dashPattern=1 3;strokeWidth=2;rounded=0;" parent="e2yFHtlMbtTepohKIZFu-49" edge="1">
          <mxGeometry width="50" height="50" relative="1" as="geometry">
            <mxPoint x="4.5" y="90" as="sourcePoint" />
            <mxPoint x="4.5" y="70" as="targetPoint" />
          </mxGeometry>
        </mxCell>
        <mxCell id="e2yFHtlMbtTepohKIZFu-57" value="" style="endArrow=none;dashed=1;html=1;dashPattern=1 3;strokeWidth=2;rounded=0;" parent="e2yFHtlMbtTepohKIZFu-58" edge="1">
          <mxGeometry width="50" height="50" relative="1" as="geometry">
            <mxPoint x="40" y="40" as="sourcePoint" />
            <mxPoint x="60" y="40" as="targetPoint" />
          </mxGeometry>
        </mxCell>
        <mxCell id="e2yFHtlMbtTepohKIZFu-292" value="" style="group" parent="1" vertex="1" connectable="0">
          <mxGeometry x="190" y="230" width="80" height="60" as="geometry" />
        </mxCell>
        <mxCell id="e2yFHtlMbtTepohKIZFu-396" value="" style="group" parent="e2yFHtlMbtTepohKIZFu-292" vertex="1" connectable="0">
          <mxGeometry y="10" width="50" height="50" as="geometry" />
        </mxCell>
        <mxCell id="e2yFHtlMbtTepohKIZFu-268" value="" style="rounded=0;whiteSpace=wrap;html=1;fillColor=#d5e8d4;strokeColor=#82b366;" parent="e2yFHtlMbtTepohKIZFu-396" vertex="1">
          <mxGeometry width="10" height="10" as="geometry" />
        </mxCell>
        <mxCell id="e2yFHtlMbtTepohKIZFu-269" value="" style="rounded=0;whiteSpace=wrap;html=1;fillColor=#d5e8d4;strokeColor=#82b366;" parent="e2yFHtlMbtTepohKIZFu-396" vertex="1">
          <mxGeometry y="10" width="10" height="10" as="geometry" />
        </mxCell>
        <mxCell id="e2yFHtlMbtTepohKIZFu-270" value="" style="rounded=0;whiteSpace=wrap;html=1;fillColor=#d5e8d4;strokeColor=#82b366;" parent="e2yFHtlMbtTepohKIZFu-396" vertex="1">
          <mxGeometry y="20" width="10" height="10" as="geometry" />
        </mxCell>
        <mxCell id="e2yFHtlMbtTepohKIZFu-271" value="" style="rounded=0;whiteSpace=wrap;html=1;fillColor=#d5e8d4;strokeColor=#82b366;" parent="e2yFHtlMbtTepohKIZFu-396" vertex="1">
          <mxGeometry y="30" width="10" height="10" as="geometry" />
        </mxCell>
        <mxCell id="e2yFHtlMbtTepohKIZFu-272" value="" style="rounded=0;whiteSpace=wrap;html=1;fillColor=#d5e8d4;strokeColor=#82b366;" parent="e2yFHtlMbtTepohKIZFu-396" vertex="1">
          <mxGeometry y="40" width="10" height="10" as="geometry" />
        </mxCell>
        <mxCell id="e2yFHtlMbtTepohKIZFu-274" value="" style="rounded=0;whiteSpace=wrap;html=1;fillColor=#d5e8d4;strokeColor=#82b366;" parent="e2yFHtlMbtTepohKIZFu-396" vertex="1">
          <mxGeometry x="10" width="10" height="10" as="geometry" />
        </mxCell>
        <mxCell id="e2yFHtlMbtTepohKIZFu-275" value="" style="rounded=0;whiteSpace=wrap;html=1;fillColor=#d5e8d4;strokeColor=#82b366;" parent="e2yFHtlMbtTepohKIZFu-396" vertex="1">
          <mxGeometry x="10" y="10" width="10" height="10" as="geometry" />
        </mxCell>
        <mxCell id="e2yFHtlMbtTepohKIZFu-276" value="" style="rounded=0;whiteSpace=wrap;html=1;fillColor=#d5e8d4;strokeColor=#82b366;" parent="e2yFHtlMbtTepohKIZFu-396" vertex="1">
          <mxGeometry x="10" y="20" width="10" height="10" as="geometry" />
        </mxCell>
        <mxCell id="e2yFHtlMbtTepohKIZFu-277" value="" style="rounded=0;whiteSpace=wrap;html=1;fillColor=#d5e8d4;strokeColor=#82b366;" parent="e2yFHtlMbtTepohKIZFu-396" vertex="1">
          <mxGeometry x="10" y="30" width="10" height="10" as="geometry" />
        </mxCell>
        <mxCell id="e2yFHtlMbtTepohKIZFu-278" value="" style="rounded=0;whiteSpace=wrap;html=1;fillColor=#d5e8d4;strokeColor=#82b366;" parent="e2yFHtlMbtTepohKIZFu-396" vertex="1">
          <mxGeometry x="10" y="40" width="10" height="10" as="geometry" />
        </mxCell>
        <mxCell id="e2yFHtlMbtTepohKIZFu-280" value="" style="rounded=0;whiteSpace=wrap;html=1;fillColor=#d5e8d4;strokeColor=#82b366;" parent="e2yFHtlMbtTepohKIZFu-396" vertex="1">
          <mxGeometry x="20" width="10" height="10" as="geometry" />
        </mxCell>
        <mxCell id="e2yFHtlMbtTepohKIZFu-281" value="" style="rounded=0;whiteSpace=wrap;html=1;fillColor=#d5e8d4;strokeColor=#82b366;" parent="e2yFHtlMbtTepohKIZFu-396" vertex="1">
          <mxGeometry x="20" y="10" width="10" height="10" as="geometry" />
        </mxCell>
        <mxCell id="e2yFHtlMbtTepohKIZFu-282" value="" style="rounded=0;whiteSpace=wrap;html=1;fillColor=#d5e8d4;strokeColor=#82b366;" parent="e2yFHtlMbtTepohKIZFu-396" vertex="1">
          <mxGeometry x="20" y="20" width="10" height="10" as="geometry" />
        </mxCell>
        <mxCell id="e2yFHtlMbtTepohKIZFu-283" value="" style="rounded=0;whiteSpace=wrap;html=1;fillColor=#d5e8d4;strokeColor=#82b366;" parent="e2yFHtlMbtTepohKIZFu-396" vertex="1">
          <mxGeometry x="20" y="30" width="10" height="10" as="geometry" />
        </mxCell>
        <mxCell id="e2yFHtlMbtTepohKIZFu-284" value="" style="rounded=0;whiteSpace=wrap;html=1;fillColor=#d5e8d4;strokeColor=#82b366;" parent="e2yFHtlMbtTepohKIZFu-396" vertex="1">
          <mxGeometry x="20" y="40" width="10" height="10" as="geometry" />
        </mxCell>
        <mxCell id="e2yFHtlMbtTepohKIZFu-388" value="" style="group" parent="e2yFHtlMbtTepohKIZFu-396" vertex="1" connectable="0">
          <mxGeometry x="30" width="10" height="50" as="geometry" />
        </mxCell>
        <mxCell id="e2yFHtlMbtTepohKIZFu-380" value="" style="rounded=0;whiteSpace=wrap;html=1;fillColor=#d5e8d4;strokeColor=#82b366;" parent="e2yFHtlMbtTepohKIZFu-388" vertex="1">
          <mxGeometry width="10" height="10" as="geometry" />
        </mxCell>
        <mxCell id="e2yFHtlMbtTepohKIZFu-381" value="" style="rounded=0;whiteSpace=wrap;html=1;fillColor=#d5e8d4;strokeColor=#82b366;" parent="e2yFHtlMbtTepohKIZFu-388" vertex="1">
          <mxGeometry y="10" width="10" height="10" as="geometry" />
        </mxCell>
        <mxCell id="e2yFHtlMbtTepohKIZFu-382" value="" style="rounded=0;whiteSpace=wrap;html=1;fillColor=#d5e8d4;strokeColor=#82b366;" parent="e2yFHtlMbtTepohKIZFu-388" vertex="1">
          <mxGeometry y="20" width="10" height="10" as="geometry" />
        </mxCell>
        <mxCell id="e2yFHtlMbtTepohKIZFu-383" value="" style="rounded=0;whiteSpace=wrap;html=1;fillColor=#d5e8d4;strokeColor=#82b366;" parent="e2yFHtlMbtTepohKIZFu-388" vertex="1">
          <mxGeometry y="30" width="10" height="10" as="geometry" />
        </mxCell>
        <mxCell id="e2yFHtlMbtTepohKIZFu-384" value="" style="rounded=0;whiteSpace=wrap;html=1;fillColor=#d5e8d4;strokeColor=#82b366;" parent="e2yFHtlMbtTepohKIZFu-388" vertex="1">
          <mxGeometry y="40" width="10" height="10" as="geometry" />
        </mxCell>
        <mxCell id="e2yFHtlMbtTepohKIZFu-390" value="" style="group" parent="e2yFHtlMbtTepohKIZFu-396" vertex="1" connectable="0">
          <mxGeometry x="40" width="10" height="50" as="geometry" />
        </mxCell>
        <mxCell id="e2yFHtlMbtTepohKIZFu-391" value="" style="rounded=0;whiteSpace=wrap;html=1;fillColor=#d5e8d4;strokeColor=#82b366;" parent="e2yFHtlMbtTepohKIZFu-390" vertex="1">
          <mxGeometry width="10" height="10" as="geometry" />
        </mxCell>
        <mxCell id="e2yFHtlMbtTepohKIZFu-392" value="" style="rounded=0;whiteSpace=wrap;html=1;fillColor=#d5e8d4;strokeColor=#82b366;" parent="e2yFHtlMbtTepohKIZFu-390" vertex="1">
          <mxGeometry y="10" width="10" height="10" as="geometry" />
        </mxCell>
        <mxCell id="e2yFHtlMbtTepohKIZFu-393" value="" style="rounded=0;whiteSpace=wrap;html=1;fillColor=#d5e8d4;strokeColor=#82b366;" parent="e2yFHtlMbtTepohKIZFu-390" vertex="1">
          <mxGeometry y="20" width="10" height="10" as="geometry" />
        </mxCell>
        <mxCell id="e2yFHtlMbtTepohKIZFu-394" value="" style="rounded=0;whiteSpace=wrap;html=1;fillColor=#d5e8d4;strokeColor=#82b366;" parent="e2yFHtlMbtTepohKIZFu-390" vertex="1">
          <mxGeometry y="30" width="10" height="10" as="geometry" />
        </mxCell>
        <mxCell id="e2yFHtlMbtTepohKIZFu-395" value="" style="rounded=0;whiteSpace=wrap;html=1;fillColor=#d5e8d4;strokeColor=#82b366;" parent="e2yFHtlMbtTepohKIZFu-390" vertex="1">
          <mxGeometry y="40" width="10" height="10" as="geometry" />
        </mxCell>
        <mxCell id="e2yFHtlMbtTepohKIZFu-397" value="" style="group" parent="1" vertex="1" connectable="0">
          <mxGeometry x="200" y="240" width="80" height="60" as="geometry" />
        </mxCell>
        <mxCell id="e2yFHtlMbtTepohKIZFu-398" value="" style="group" parent="e2yFHtlMbtTepohKIZFu-397" vertex="1" connectable="0">
          <mxGeometry y="10" width="50" height="50" as="geometry" />
        </mxCell>
        <mxCell id="e2yFHtlMbtTepohKIZFu-399" value="" style="rounded=0;whiteSpace=wrap;html=1;fillColor=#d5e8d4;strokeColor=#82b366;" parent="e2yFHtlMbtTepohKIZFu-398" vertex="1">
          <mxGeometry width="10" height="10" as="geometry" />
        </mxCell>
        <mxCell id="e2yFHtlMbtTepohKIZFu-400" value="" style="rounded=0;whiteSpace=wrap;html=1;fillColor=#d5e8d4;strokeColor=#82b366;" parent="e2yFHtlMbtTepohKIZFu-398" vertex="1">
          <mxGeometry y="10" width="10" height="10" as="geometry" />
        </mxCell>
        <mxCell id="e2yFHtlMbtTepohKIZFu-401" value="" style="rounded=0;whiteSpace=wrap;html=1;fillColor=#d5e8d4;strokeColor=#82b366;" parent="e2yFHtlMbtTepohKIZFu-398" vertex="1">
          <mxGeometry y="20" width="10" height="10" as="geometry" />
        </mxCell>
        <mxCell id="e2yFHtlMbtTepohKIZFu-402" value="" style="rounded=0;whiteSpace=wrap;html=1;fillColor=#d5e8d4;strokeColor=#82b366;" parent="e2yFHtlMbtTepohKIZFu-398" vertex="1">
          <mxGeometry y="30" width="10" height="10" as="geometry" />
        </mxCell>
        <mxCell id="e2yFHtlMbtTepohKIZFu-403" value="" style="rounded=0;whiteSpace=wrap;html=1;fillColor=#d5e8d4;strokeColor=#82b366;" parent="e2yFHtlMbtTepohKIZFu-398" vertex="1">
          <mxGeometry y="40" width="10" height="10" as="geometry" />
        </mxCell>
        <mxCell id="e2yFHtlMbtTepohKIZFu-404" value="" style="rounded=0;whiteSpace=wrap;html=1;fillColor=#d5e8d4;strokeColor=#82b366;" parent="e2yFHtlMbtTepohKIZFu-398" vertex="1">
          <mxGeometry x="10" width="10" height="10" as="geometry" />
        </mxCell>
        <mxCell id="e2yFHtlMbtTepohKIZFu-405" value="" style="rounded=0;whiteSpace=wrap;html=1;fillColor=#d5e8d4;strokeColor=#82b366;" parent="e2yFHtlMbtTepohKIZFu-398" vertex="1">
          <mxGeometry x="10" y="10" width="10" height="10" as="geometry" />
        </mxCell>
        <mxCell id="e2yFHtlMbtTepohKIZFu-406" value="" style="rounded=0;whiteSpace=wrap;html=1;fillColor=#d5e8d4;strokeColor=#82b366;" parent="e2yFHtlMbtTepohKIZFu-398" vertex="1">
          <mxGeometry x="10" y="20" width="10" height="10" as="geometry" />
        </mxCell>
        <mxCell id="e2yFHtlMbtTepohKIZFu-407" value="" style="rounded=0;whiteSpace=wrap;html=1;fillColor=#d5e8d4;strokeColor=#82b366;" parent="e2yFHtlMbtTepohKIZFu-398" vertex="1">
          <mxGeometry x="10" y="30" width="10" height="10" as="geometry" />
        </mxCell>
        <mxCell id="e2yFHtlMbtTepohKIZFu-408" value="" style="rounded=0;whiteSpace=wrap;html=1;fillColor=#d5e8d4;strokeColor=#82b366;" parent="e2yFHtlMbtTepohKIZFu-398" vertex="1">
          <mxGeometry x="10" y="40" width="10" height="10" as="geometry" />
        </mxCell>
        <mxCell id="e2yFHtlMbtTepohKIZFu-409" value="" style="rounded=0;whiteSpace=wrap;html=1;fillColor=#d5e8d4;strokeColor=#82b366;" parent="e2yFHtlMbtTepohKIZFu-398" vertex="1">
          <mxGeometry x="20" width="10" height="10" as="geometry" />
        </mxCell>
        <mxCell id="e2yFHtlMbtTepohKIZFu-410" value="" style="rounded=0;whiteSpace=wrap;html=1;fillColor=#d5e8d4;strokeColor=#82b366;" parent="e2yFHtlMbtTepohKIZFu-398" vertex="1">
          <mxGeometry x="20" y="10" width="10" height="10" as="geometry" />
        </mxCell>
        <mxCell id="e2yFHtlMbtTepohKIZFu-411" value="" style="rounded=0;whiteSpace=wrap;html=1;fillColor=#d5e8d4;strokeColor=#82b366;" parent="e2yFHtlMbtTepohKIZFu-398" vertex="1">
          <mxGeometry x="20" y="20" width="10" height="10" as="geometry" />
        </mxCell>
        <mxCell id="e2yFHtlMbtTepohKIZFu-412" value="" style="rounded=0;whiteSpace=wrap;html=1;fillColor=#d5e8d4;strokeColor=#82b366;" parent="e2yFHtlMbtTepohKIZFu-398" vertex="1">
          <mxGeometry x="20" y="30" width="10" height="10" as="geometry" />
        </mxCell>
        <mxCell id="e2yFHtlMbtTepohKIZFu-413" value="" style="rounded=0;whiteSpace=wrap;html=1;fillColor=#d5e8d4;strokeColor=#82b366;" parent="e2yFHtlMbtTepohKIZFu-398" vertex="1">
          <mxGeometry x="20" y="40" width="10" height="10" as="geometry" />
        </mxCell>
        <mxCell id="e2yFHtlMbtTepohKIZFu-414" value="" style="group" parent="e2yFHtlMbtTepohKIZFu-398" vertex="1" connectable="0">
          <mxGeometry x="30" width="10" height="50" as="geometry" />
        </mxCell>
        <mxCell id="e2yFHtlMbtTepohKIZFu-415" value="" style="rounded=0;whiteSpace=wrap;html=1;fillColor=#d5e8d4;strokeColor=#82b366;" parent="e2yFHtlMbtTepohKIZFu-414" vertex="1">
          <mxGeometry width="10" height="10" as="geometry" />
        </mxCell>
        <mxCell id="e2yFHtlMbtTepohKIZFu-416" value="" style="rounded=0;whiteSpace=wrap;html=1;fillColor=#d5e8d4;strokeColor=#82b366;" parent="e2yFHtlMbtTepohKIZFu-414" vertex="1">
          <mxGeometry y="10" width="10" height="10" as="geometry" />
        </mxCell>
        <mxCell id="e2yFHtlMbtTepohKIZFu-417" value="" style="rounded=0;whiteSpace=wrap;html=1;fillColor=#d5e8d4;strokeColor=#82b366;" parent="e2yFHtlMbtTepohKIZFu-414" vertex="1">
          <mxGeometry y="20" width="10" height="10" as="geometry" />
        </mxCell>
        <mxCell id="e2yFHtlMbtTepohKIZFu-418" value="" style="rounded=0;whiteSpace=wrap;html=1;fillColor=#d5e8d4;strokeColor=#82b366;" parent="e2yFHtlMbtTepohKIZFu-414" vertex="1">
          <mxGeometry y="30" width="10" height="10" as="geometry" />
        </mxCell>
        <mxCell id="e2yFHtlMbtTepohKIZFu-419" value="" style="rounded=0;whiteSpace=wrap;html=1;fillColor=#d5e8d4;strokeColor=#82b366;" parent="e2yFHtlMbtTepohKIZFu-414" vertex="1">
          <mxGeometry y="40" width="10" height="10" as="geometry" />
        </mxCell>
        <mxCell id="e2yFHtlMbtTepohKIZFu-420" value="" style="group" parent="e2yFHtlMbtTepohKIZFu-398" vertex="1" connectable="0">
          <mxGeometry x="40" width="10" height="50" as="geometry" />
        </mxCell>
        <mxCell id="e2yFHtlMbtTepohKIZFu-421" value="" style="rounded=0;whiteSpace=wrap;html=1;fillColor=#d5e8d4;strokeColor=#82b366;" parent="e2yFHtlMbtTepohKIZFu-420" vertex="1">
          <mxGeometry width="10" height="10" as="geometry" />
        </mxCell>
        <mxCell id="e2yFHtlMbtTepohKIZFu-422" value="" style="rounded=0;whiteSpace=wrap;html=1;fillColor=#d5e8d4;strokeColor=#82b366;" parent="e2yFHtlMbtTepohKIZFu-420" vertex="1">
          <mxGeometry y="10" width="10" height="10" as="geometry" />
        </mxCell>
        <mxCell id="e2yFHtlMbtTepohKIZFu-423" value="" style="rounded=0;whiteSpace=wrap;html=1;fillColor=#d5e8d4;strokeColor=#82b366;" parent="e2yFHtlMbtTepohKIZFu-420" vertex="1">
          <mxGeometry y="20" width="10" height="10" as="geometry" />
        </mxCell>
        <mxCell id="e2yFHtlMbtTepohKIZFu-424" value="" style="rounded=0;whiteSpace=wrap;html=1;fillColor=#d5e8d4;strokeColor=#82b366;" parent="e2yFHtlMbtTepohKIZFu-420" vertex="1">
          <mxGeometry y="30" width="10" height="10" as="geometry" />
        </mxCell>
        <mxCell id="e2yFHtlMbtTepohKIZFu-425" value="" style="rounded=0;whiteSpace=wrap;html=1;fillColor=#d5e8d4;strokeColor=#82b366;" parent="e2yFHtlMbtTepohKIZFu-420" vertex="1">
          <mxGeometry y="40" width="10" height="10" as="geometry" />
        </mxCell>
        <mxCell id="e2yFHtlMbtTepohKIZFu-426" value="" style="group" parent="1" vertex="1" connectable="0">
          <mxGeometry x="210" y="250" width="80" height="60" as="geometry" />
        </mxCell>
        <mxCell id="e2yFHtlMbtTepohKIZFu-427" value="" style="group" parent="e2yFHtlMbtTepohKIZFu-426" vertex="1" connectable="0">
          <mxGeometry y="10" width="50" height="50" as="geometry" />
        </mxCell>
        <mxCell id="e2yFHtlMbtTepohKIZFu-428" value="" style="rounded=0;whiteSpace=wrap;html=1;fillColor=#d5e8d4;strokeColor=#82b366;" parent="e2yFHtlMbtTepohKIZFu-427" vertex="1">
          <mxGeometry width="10" height="10" as="geometry" />
        </mxCell>
        <mxCell id="e2yFHtlMbtTepohKIZFu-429" value="" style="rounded=0;whiteSpace=wrap;html=1;fillColor=#d5e8d4;strokeColor=#82b366;" parent="e2yFHtlMbtTepohKIZFu-427" vertex="1">
          <mxGeometry y="10" width="10" height="10" as="geometry" />
        </mxCell>
        <mxCell id="e2yFHtlMbtTepohKIZFu-430" value="" style="rounded=0;whiteSpace=wrap;html=1;fillColor=#d5e8d4;strokeColor=#82b366;" parent="e2yFHtlMbtTepohKIZFu-427" vertex="1">
          <mxGeometry y="20" width="10" height="10" as="geometry" />
        </mxCell>
        <mxCell id="e2yFHtlMbtTepohKIZFu-431" value="" style="rounded=0;whiteSpace=wrap;html=1;fillColor=#d5e8d4;strokeColor=#82b366;" parent="e2yFHtlMbtTepohKIZFu-427" vertex="1">
          <mxGeometry y="30" width="10" height="10" as="geometry" />
        </mxCell>
        <mxCell id="e2yFHtlMbtTepohKIZFu-432" value="" style="rounded=0;whiteSpace=wrap;html=1;fillColor=#d5e8d4;strokeColor=#82b366;" parent="e2yFHtlMbtTepohKIZFu-427" vertex="1">
          <mxGeometry y="40" width="10" height="10" as="geometry" />
        </mxCell>
        <mxCell id="e2yFHtlMbtTepohKIZFu-433" value="" style="rounded=0;whiteSpace=wrap;html=1;fillColor=#d5e8d4;strokeColor=#82b366;" parent="e2yFHtlMbtTepohKIZFu-427" vertex="1">
          <mxGeometry x="10" width="10" height="10" as="geometry" />
        </mxCell>
        <mxCell id="e2yFHtlMbtTepohKIZFu-434" value="" style="rounded=0;whiteSpace=wrap;html=1;fillColor=#d5e8d4;strokeColor=#82b366;" parent="e2yFHtlMbtTepohKIZFu-427" vertex="1">
          <mxGeometry x="10" y="10" width="10" height="10" as="geometry" />
        </mxCell>
        <mxCell id="e2yFHtlMbtTepohKIZFu-435" value="" style="rounded=0;whiteSpace=wrap;html=1;fillColor=#d5e8d4;strokeColor=#82b366;" parent="e2yFHtlMbtTepohKIZFu-427" vertex="1">
          <mxGeometry x="10" y="20" width="10" height="10" as="geometry" />
        </mxCell>
        <mxCell id="e2yFHtlMbtTepohKIZFu-436" value="" style="rounded=0;whiteSpace=wrap;html=1;fillColor=#d5e8d4;strokeColor=#82b366;" parent="e2yFHtlMbtTepohKIZFu-427" vertex="1">
          <mxGeometry x="10" y="30" width="10" height="10" as="geometry" />
        </mxCell>
        <mxCell id="e2yFHtlMbtTepohKIZFu-437" value="" style="rounded=0;whiteSpace=wrap;html=1;fillColor=#d5e8d4;strokeColor=#82b366;" parent="e2yFHtlMbtTepohKIZFu-427" vertex="1">
          <mxGeometry x="10" y="40" width="10" height="10" as="geometry" />
        </mxCell>
        <mxCell id="e2yFHtlMbtTepohKIZFu-438" value="" style="rounded=0;whiteSpace=wrap;html=1;fillColor=#d5e8d4;strokeColor=#82b366;" parent="e2yFHtlMbtTepohKIZFu-427" vertex="1">
          <mxGeometry x="20" width="10" height="10" as="geometry" />
        </mxCell>
        <mxCell id="e2yFHtlMbtTepohKIZFu-439" value="" style="rounded=0;whiteSpace=wrap;html=1;fillColor=#d5e8d4;strokeColor=#82b366;" parent="e2yFHtlMbtTepohKIZFu-427" vertex="1">
          <mxGeometry x="20" y="10" width="10" height="10" as="geometry" />
        </mxCell>
        <mxCell id="e2yFHtlMbtTepohKIZFu-440" value="" style="rounded=0;whiteSpace=wrap;html=1;fillColor=#d5e8d4;strokeColor=#82b366;" parent="e2yFHtlMbtTepohKIZFu-427" vertex="1">
          <mxGeometry x="20" y="20" width="10" height="10" as="geometry" />
        </mxCell>
        <mxCell id="e2yFHtlMbtTepohKIZFu-441" value="" style="rounded=0;whiteSpace=wrap;html=1;fillColor=#d5e8d4;strokeColor=#82b366;" parent="e2yFHtlMbtTepohKIZFu-427" vertex="1">
          <mxGeometry x="20" y="30" width="10" height="10" as="geometry" />
        </mxCell>
        <mxCell id="e2yFHtlMbtTepohKIZFu-442" value="" style="rounded=0;whiteSpace=wrap;html=1;fillColor=#d5e8d4;strokeColor=#82b366;" parent="e2yFHtlMbtTepohKIZFu-427" vertex="1">
          <mxGeometry x="20" y="40" width="10" height="10" as="geometry" />
        </mxCell>
        <mxCell id="e2yFHtlMbtTepohKIZFu-443" value="" style="group" parent="e2yFHtlMbtTepohKIZFu-427" vertex="1" connectable="0">
          <mxGeometry x="30" width="10" height="50" as="geometry" />
        </mxCell>
        <mxCell id="e2yFHtlMbtTepohKIZFu-444" value="" style="rounded=0;whiteSpace=wrap;html=1;fillColor=#d5e8d4;strokeColor=#82b366;" parent="e2yFHtlMbtTepohKIZFu-443" vertex="1">
          <mxGeometry width="10" height="10" as="geometry" />
        </mxCell>
        <mxCell id="e2yFHtlMbtTepohKIZFu-445" value="" style="rounded=0;whiteSpace=wrap;html=1;fillColor=#d5e8d4;strokeColor=#82b366;" parent="e2yFHtlMbtTepohKIZFu-443" vertex="1">
          <mxGeometry y="10" width="10" height="10" as="geometry" />
        </mxCell>
        <mxCell id="e2yFHtlMbtTepohKIZFu-446" value="" style="rounded=0;whiteSpace=wrap;html=1;fillColor=#d5e8d4;strokeColor=#82b366;" parent="e2yFHtlMbtTepohKIZFu-443" vertex="1">
          <mxGeometry y="20" width="10" height="10" as="geometry" />
        </mxCell>
        <mxCell id="e2yFHtlMbtTepohKIZFu-447" value="" style="rounded=0;whiteSpace=wrap;html=1;fillColor=#d5e8d4;strokeColor=#82b366;" parent="e2yFHtlMbtTepohKIZFu-443" vertex="1">
          <mxGeometry y="30" width="10" height="10" as="geometry" />
        </mxCell>
        <mxCell id="e2yFHtlMbtTepohKIZFu-448" value="" style="rounded=0;whiteSpace=wrap;html=1;fillColor=#d5e8d4;strokeColor=#82b366;" parent="e2yFHtlMbtTepohKIZFu-443" vertex="1">
          <mxGeometry y="40" width="10" height="10" as="geometry" />
        </mxCell>
        <mxCell id="e2yFHtlMbtTepohKIZFu-449" value="" style="group" parent="e2yFHtlMbtTepohKIZFu-427" vertex="1" connectable="0">
          <mxGeometry x="40" width="10" height="50" as="geometry" />
        </mxCell>
        <mxCell id="e2yFHtlMbtTepohKIZFu-450" value="" style="rounded=0;whiteSpace=wrap;html=1;fillColor=#d5e8d4;strokeColor=#82b366;" parent="e2yFHtlMbtTepohKIZFu-449" vertex="1">
          <mxGeometry width="10" height="10" as="geometry" />
        </mxCell>
        <mxCell id="e2yFHtlMbtTepohKIZFu-451" value="" style="rounded=0;whiteSpace=wrap;html=1;fillColor=#d5e8d4;strokeColor=#82b366;" parent="e2yFHtlMbtTepohKIZFu-449" vertex="1">
          <mxGeometry y="10" width="10" height="10" as="geometry" />
        </mxCell>
        <mxCell id="e2yFHtlMbtTepohKIZFu-452" value="" style="rounded=0;whiteSpace=wrap;html=1;fillColor=#d5e8d4;strokeColor=#82b366;" parent="e2yFHtlMbtTepohKIZFu-449" vertex="1">
          <mxGeometry y="20" width="10" height="10" as="geometry" />
        </mxCell>
        <mxCell id="e2yFHtlMbtTepohKIZFu-453" value="" style="rounded=0;whiteSpace=wrap;html=1;fillColor=#d5e8d4;strokeColor=#82b366;" parent="e2yFHtlMbtTepohKIZFu-449" vertex="1">
          <mxGeometry y="30" width="10" height="10" as="geometry" />
        </mxCell>
        <mxCell id="e2yFHtlMbtTepohKIZFu-454" value="" style="rounded=0;whiteSpace=wrap;html=1;fillColor=#d5e8d4;strokeColor=#82b366;" parent="e2yFHtlMbtTepohKIZFu-449" vertex="1">
          <mxGeometry y="40" width="10" height="10" as="geometry" />
        </mxCell>
        <mxCell id="e2yFHtlMbtTepohKIZFu-455" value="" style="endArrow=none;dashed=1;html=1;dashPattern=1 3;strokeWidth=2;rounded=0;exitX=1;exitY=1;exitDx=0;exitDy=0;" parent="1" source="e2yFHtlMbtTepohKIZFu-454" edge="1">
          <mxGeometry width="50" height="50" relative="1" as="geometry">
            <mxPoint x="270" y="320" as="sourcePoint" />
            <mxPoint x="280" y="330" as="targetPoint" />
          </mxGeometry>
        </mxCell>
        <mxCell id="e2yFHtlMbtTepohKIZFu-544" value="" style="group" parent="1" vertex="1" connectable="0">
          <mxGeometry x="355" y="240" width="80" height="60" as="geometry" />
        </mxCell>
        <mxCell id="e2yFHtlMbtTepohKIZFu-545" value="" style="group" parent="e2yFHtlMbtTepohKIZFu-544" vertex="1" connectable="0">
          <mxGeometry y="10" width="50" height="50" as="geometry" />
        </mxCell>
        <mxCell id="e2yFHtlMbtTepohKIZFu-546" value="" style="rounded=0;whiteSpace=wrap;html=1;fillColor=#d5e8d4;strokeColor=#82b366;" parent="e2yFHtlMbtTepohKIZFu-545" vertex="1">
          <mxGeometry width="10" height="10" as="geometry" />
        </mxCell>
        <mxCell id="e2yFHtlMbtTepohKIZFu-547" value="" style="rounded=0;whiteSpace=wrap;html=1;fillColor=#d5e8d4;strokeColor=#82b366;" parent="e2yFHtlMbtTepohKIZFu-545" vertex="1">
          <mxGeometry y="10" width="10" height="10" as="geometry" />
        </mxCell>
        <mxCell id="e2yFHtlMbtTepohKIZFu-548" value="" style="rounded=0;whiteSpace=wrap;html=1;fillColor=#d5e8d4;strokeColor=#82b366;" parent="e2yFHtlMbtTepohKIZFu-545" vertex="1">
          <mxGeometry y="20" width="10" height="10" as="geometry" />
        </mxCell>
        <mxCell id="e2yFHtlMbtTepohKIZFu-549" value="" style="rounded=0;whiteSpace=wrap;html=1;fillColor=#d5e8d4;strokeColor=#82b366;" parent="e2yFHtlMbtTepohKIZFu-545" vertex="1">
          <mxGeometry y="30" width="10" height="10" as="geometry" />
        </mxCell>
        <mxCell id="e2yFHtlMbtTepohKIZFu-550" value="" style="rounded=0;whiteSpace=wrap;html=1;fillColor=#dae8fc;strokeColor=#6c8ebf;" parent="e2yFHtlMbtTepohKIZFu-545" vertex="1">
          <mxGeometry y="40" width="10" height="10" as="geometry" />
        </mxCell>
        <mxCell id="e2yFHtlMbtTepohKIZFu-551" value="" style="rounded=0;whiteSpace=wrap;html=1;fillColor=#d5e8d4;strokeColor=#82b366;" parent="e2yFHtlMbtTepohKIZFu-545" vertex="1">
          <mxGeometry x="10" width="10" height="10" as="geometry" />
        </mxCell>
        <mxCell id="e2yFHtlMbtTepohKIZFu-552" value="" style="rounded=0;whiteSpace=wrap;html=1;fillColor=#d5e8d4;strokeColor=#82b366;" parent="e2yFHtlMbtTepohKIZFu-545" vertex="1">
          <mxGeometry x="10" y="10" width="10" height="10" as="geometry" />
        </mxCell>
        <mxCell id="e2yFHtlMbtTepohKIZFu-553" value="" style="rounded=0;whiteSpace=wrap;html=1;fillColor=#d5e8d4;strokeColor=#82b366;" parent="e2yFHtlMbtTepohKIZFu-545" vertex="1">
          <mxGeometry x="10" y="20" width="10" height="10" as="geometry" />
        </mxCell>
        <mxCell id="e2yFHtlMbtTepohKIZFu-554" value="" style="rounded=0;whiteSpace=wrap;html=1;fillColor=#d5e8d4;strokeColor=#82b366;" parent="e2yFHtlMbtTepohKIZFu-545" vertex="1">
          <mxGeometry x="10" y="30" width="10" height="10" as="geometry" />
        </mxCell>
        <mxCell id="e2yFHtlMbtTepohKIZFu-555" value="" style="rounded=0;whiteSpace=wrap;html=1;fillColor=#dae8fc;strokeColor=#6c8ebf;" parent="e2yFHtlMbtTepohKIZFu-545" vertex="1">
          <mxGeometry x="10" y="40" width="10" height="10" as="geometry" />
        </mxCell>
        <mxCell id="e2yFHtlMbtTepohKIZFu-556" value="" style="rounded=0;whiteSpace=wrap;html=1;fillColor=#d5e8d4;strokeColor=#82b366;" parent="e2yFHtlMbtTepohKIZFu-545" vertex="1">
          <mxGeometry x="20" width="10" height="10" as="geometry" />
        </mxCell>
        <mxCell id="e2yFHtlMbtTepohKIZFu-557" value="" style="rounded=0;whiteSpace=wrap;html=1;fillColor=#d5e8d4;strokeColor=#82b366;" parent="e2yFHtlMbtTepohKIZFu-545" vertex="1">
          <mxGeometry x="20" y="10" width="10" height="10" as="geometry" />
        </mxCell>
        <mxCell id="e2yFHtlMbtTepohKIZFu-558" value="" style="rounded=0;whiteSpace=wrap;html=1;fillColor=#d5e8d4;strokeColor=#82b366;" parent="e2yFHtlMbtTepohKIZFu-545" vertex="1">
          <mxGeometry x="20" y="20" width="10" height="10" as="geometry" />
        </mxCell>
        <mxCell id="e2yFHtlMbtTepohKIZFu-559" value="" style="rounded=0;whiteSpace=wrap;html=1;fillColor=#d5e8d4;strokeColor=#82b366;" parent="e2yFHtlMbtTepohKIZFu-545" vertex="1">
          <mxGeometry x="20" y="30" width="10" height="10" as="geometry" />
        </mxCell>
        <mxCell id="e2yFHtlMbtTepohKIZFu-560" value="" style="rounded=0;whiteSpace=wrap;html=1;fillColor=#dae8fc;strokeColor=#6c8ebf;" parent="e2yFHtlMbtTepohKIZFu-545" vertex="1">
          <mxGeometry x="20" y="40" width="10" height="10" as="geometry" />
        </mxCell>
        <mxCell id="e2yFHtlMbtTepohKIZFu-561" value="" style="group" parent="e2yFHtlMbtTepohKIZFu-545" vertex="1" connectable="0">
          <mxGeometry x="30" width="10" height="50" as="geometry" />
        </mxCell>
        <mxCell id="e2yFHtlMbtTepohKIZFu-562" value="" style="rounded=0;whiteSpace=wrap;html=1;fillColor=#d5e8d4;strokeColor=#82b366;" parent="e2yFHtlMbtTepohKIZFu-561" vertex="1">
          <mxGeometry width="10" height="10" as="geometry" />
        </mxCell>
        <mxCell id="e2yFHtlMbtTepohKIZFu-563" value="" style="rounded=0;whiteSpace=wrap;html=1;fillColor=#d5e8d4;strokeColor=#82b366;" parent="e2yFHtlMbtTepohKIZFu-561" vertex="1">
          <mxGeometry y="10" width="10" height="10" as="geometry" />
        </mxCell>
        <mxCell id="e2yFHtlMbtTepohKIZFu-564" value="" style="rounded=0;whiteSpace=wrap;html=1;fillColor=#d5e8d4;strokeColor=#82b366;" parent="e2yFHtlMbtTepohKIZFu-561" vertex="1">
          <mxGeometry y="20" width="10" height="10" as="geometry" />
        </mxCell>
        <mxCell id="e2yFHtlMbtTepohKIZFu-565" value="" style="rounded=0;whiteSpace=wrap;html=1;fillColor=#d5e8d4;strokeColor=#82b366;" parent="e2yFHtlMbtTepohKIZFu-561" vertex="1">
          <mxGeometry y="30" width="10" height="10" as="geometry" />
        </mxCell>
        <mxCell id="e2yFHtlMbtTepohKIZFu-566" value="" style="rounded=0;whiteSpace=wrap;html=1;fillColor=#dae8fc;strokeColor=#6c8ebf;" parent="e2yFHtlMbtTepohKIZFu-561" vertex="1">
          <mxGeometry y="40" width="10" height="10" as="geometry" />
        </mxCell>
        <mxCell id="e2yFHtlMbtTepohKIZFu-567" value="" style="group" parent="e2yFHtlMbtTepohKIZFu-545" vertex="1" connectable="0">
          <mxGeometry x="40" width="10" height="50" as="geometry" />
        </mxCell>
        <mxCell id="e2yFHtlMbtTepohKIZFu-568" value="" style="rounded=0;whiteSpace=wrap;html=1;fillColor=#d5e8d4;strokeColor=#82b366;" parent="e2yFHtlMbtTepohKIZFu-567" vertex="1">
          <mxGeometry width="10" height="10" as="geometry" />
        </mxCell>
        <mxCell id="e2yFHtlMbtTepohKIZFu-569" value="" style="rounded=0;whiteSpace=wrap;html=1;fillColor=#d5e8d4;strokeColor=#82b366;" parent="e2yFHtlMbtTepohKIZFu-567" vertex="1">
          <mxGeometry y="10" width="10" height="10" as="geometry" />
        </mxCell>
        <mxCell id="e2yFHtlMbtTepohKIZFu-570" value="" style="rounded=0;whiteSpace=wrap;html=1;fillColor=#d5e8d4;strokeColor=#82b366;" parent="e2yFHtlMbtTepohKIZFu-567" vertex="1">
          <mxGeometry y="20" width="10" height="10" as="geometry" />
        </mxCell>
        <mxCell id="e2yFHtlMbtTepohKIZFu-571" value="" style="rounded=0;whiteSpace=wrap;html=1;fillColor=#d5e8d4;strokeColor=#82b366;" parent="e2yFHtlMbtTepohKIZFu-567" vertex="1">
          <mxGeometry y="30" width="10" height="10" as="geometry" />
        </mxCell>
        <mxCell id="e2yFHtlMbtTepohKIZFu-572" value="" style="rounded=0;whiteSpace=wrap;html=1;fillColor=#dae8fc;strokeColor=#6c8ebf;" parent="e2yFHtlMbtTepohKIZFu-567" vertex="1">
          <mxGeometry y="40" width="10" height="10" as="geometry" />
        </mxCell>
        <mxCell id="eNpgOsh8qFjRd633PgLv-1" value="" style="shape=flexArrow;endArrow=classic;html=1;rounded=0;entryX=0;entryY=0;entryDx=0;entryDy=0;" edge="1" parent="1" target="e2yFHtlMbtTepohKIZFu-271">
          <mxGeometry width="50" height="50" relative="1" as="geometry">
            <mxPoint x="110" y="270" as="sourcePoint" />
            <mxPoint x="360" y="340" as="targetPoint" />
          </mxGeometry>
        </mxCell>
        <mxCell id="eNpgOsh8qFjRd633PgLv-2" value="" style="shape=flexArrow;endArrow=classic;html=1;rounded=0;entryX=0;entryY=0.5;entryDx=0;entryDy=0;" edge="1" parent="1" target="e2yFHtlMbtTepohKIZFu-548">
          <mxGeometry width="50" height="50" relative="1" as="geometry">
            <mxPoint x="260" y="275" as="sourcePoint" />
            <mxPoint x="340" y="278" as="targetPoint" />
          </mxGeometry>
        </mxCell>
        <mxCell id="eNpgOsh8qFjRd633PgLv-4" value="Sliding&lt;div&gt;Window&lt;/div&gt;" style="text;html=1;align=center;verticalAlign=middle;resizable=0;points=[];autosize=1;strokeColor=none;fillColor=none;" vertex="1" parent="1">
          <mxGeometry x="110" y="220" width="70" height="40" as="geometry" />
        </mxCell>
        <mxCell id="eNpgOsh8qFjRd633PgLv-5" value="&lt;font face=&quot;Lucida Console&quot; style=&quot;font-size: 15px;&quot;&gt;Raw Data&lt;/font&gt;" style="text;html=1;align=center;verticalAlign=middle;resizable=0;points=[];autosize=1;strokeColor=none;fillColor=none;" vertex="1" parent="1">
          <mxGeometry x="20" y="340" width="100" height="30" as="geometry" />
        </mxCell>
        <mxCell id="eNpgOsh8qFjRd633PgLv-6" value="&lt;font face=&quot;Lucida Console&quot; style=&quot;font-size: 15px;&quot;&gt;Training Dataset&lt;/font&gt;" style="text;html=1;align=center;verticalAlign=middle;resizable=0;points=[];autosize=1;strokeColor=none;fillColor=none;" vertex="1" parent="1">
          <mxGeometry x="145" y="340" width="170" height="30" as="geometry" />
        </mxCell>
        <mxCell id="eNpgOsh8qFjRd633PgLv-7" value="&lt;font face=&quot;Lucida Console&quot; style=&quot;font-size: 15px;&quot;&gt;Pridicted Data&lt;/font&gt;" style="text;html=1;align=center;verticalAlign=middle;resizable=0;points=[];autosize=1;strokeColor=none;fillColor=none;" vertex="1" parent="1">
          <mxGeometry x="315" y="340" width="150" height="30" as="geometry" />
        </mxCell>
        <mxCell id="eNpgOsh8qFjRd633PgLv-8" value="LSTM/&lt;div&gt;CNN/&lt;/div&gt;&lt;div&gt;transformer&lt;/div&gt;" style="text;html=1;align=center;verticalAlign=middle;resizable=0;points=[];autosize=1;strokeColor=none;fillColor=none;" vertex="1" parent="1">
          <mxGeometry x="265" y="200" width="80" height="60" as="geometry" />
        </mxCell>
        <mxCell id="eNpgOsh8qFjRd633PgLv-9" value="" style="rounded=0;whiteSpace=wrap;html=1;fillColor=#fff2cc;strokeColor=#d6b656;" vertex="1" parent="1">
          <mxGeometry x="355" y="300" width="10" height="10" as="geometry" />
        </mxCell>
        <mxCell id="eNpgOsh8qFjRd633PgLv-10" value="" style="rounded=0;whiteSpace=wrap;html=1;fillColor=#fff2cc;strokeColor=#d6b656;" vertex="1" parent="1">
          <mxGeometry x="365" y="300" width="10" height="10" as="geometry" />
        </mxCell>
        <mxCell id="eNpgOsh8qFjRd633PgLv-11" value="" style="rounded=0;whiteSpace=wrap;html=1;fillColor=#fff2cc;strokeColor=#d6b656;" vertex="1" parent="1">
          <mxGeometry x="375" y="300" width="10" height="10" as="geometry" />
        </mxCell>
        <mxCell id="eNpgOsh8qFjRd633PgLv-12" value="" style="rounded=0;whiteSpace=wrap;html=1;fillColor=#fff2cc;strokeColor=#d6b656;" vertex="1" parent="1">
          <mxGeometry x="385" y="300" width="10" height="10" as="geometry" />
        </mxCell>
        <mxCell id="eNpgOsh8qFjRd633PgLv-13" value="" style="rounded=0;whiteSpace=wrap;html=1;fillColor=#fff2cc;strokeColor=#d6b656;" vertex="1" parent="1">
          <mxGeometry x="395" y="300" width="10" height="10" as="geometry" />
        </mxCell>
      </root>
    </mxGraphModel>
  </diagram>
</mxfile>
